<svg xmlns="http://www.w3.org/2000/svg" width="1200" height="900" viewBox="0 0 1200 900">
  <defs>
    <linearGradient id="bg" x1="0" y1="0" x2="1" y2="1">
      <stop offset="0" stop-color="#07070c" />
      <stop offset="0.6" stop-color="#090912" />
      <stop offset="1" stop-color="#050509" />
    </linearGradient>
    <radialGradient id="glow1" cx="70%" cy="15%" r="65%">
      <stop offset="0" stop-color="rgba(56,189,248,0.28)" />
      <stop offset="1" stop-color="rgba(56,189,248,0)" />
    </radialGradient>
    <radialGradient id="glow2" cx="25%" cy="75%" r="70%">
      <stop offset="0" stop-color="rgba(244,63,94,0.18)" />
      <stop offset="1" stop-color="rgba(244,63,94,0)" />
    </radialGradient>
  </defs>

  <rect width="1200" height="900" fill="url(#bg)" />
  <rect width="1200" height="900" fill="url(#glow1)" />
  <rect width="1200" height="900" fill="url(#glow2)" />

  <g transform="translate(210,220)">
    <rect width="780" height="460" rx="26" fill="rgba(255,255,255,0.04)" stroke="rgba(255,255,255,0.10)" />

    <g transform="translate(40,50)">
      <rect width="700" height="64" rx="16" fill="rgba(255,255,255,0.05)" />
      <circle cx="36" cy="32" r="10" fill="rgba(45,212,191,0.55)" />
      <circle cx="66" cy="32" r="10" fill="rgba(217,70,239,0.45)" />
      <circle cx="96" cy="32" r="10" fill="rgba(56,189,248,0.45)" />
      <rect x="140" y="24" width="220" height="16" rx="8" fill="rgba(255,255,255,0.08)" />
      <rect x="380" y="24" width="120" height="16" rx="8" fill="rgba(255,255,255,0.06)" />
    </g>

    <g transform="translate(40,140)">
      <rect width="700" height="64" rx="16" fill="rgba(255,255,255,0.05)" />
      <rect x="24" y="22" width="300" height="20" rx="10" fill="rgba(255,255,255,0.07)" />
      <rect x="350" y="22" width="120" height="20" rx="10" fill="rgba(255,255,255,0.05)" />
      <rect x="490" y="22" width="180" height="20" rx="10" fill="rgba(255,255,255,0.05)" />
    </g>

    <g transform="translate(40,230)">
      <rect width="700" height="64" rx="16" fill="rgba(255,255,255,0.05)" />
      <rect x="24" y="22" width="420" height="20" rx="10" fill="rgba(255,255,255,0.06)" />
      <rect x="470" y="22" width="200" height="20" rx="10" fill="rgba(255,255,255,0.05)" />
    </g>
  </g>

  <text x="250" y="620" font-family="ui-sans-serif, system-ui, -apple-system, Segoe UI, Roboto, Helvetica, Arial" font-size="28" fill="rgba(244,244,245,0.92)">
    Placeholder image (rack.svg)
  </text>
  <text x="250" y="655" font-family="ui-sans-serif, system-ui, -apple-system, Segoe UI, Roboto, Helvetica, Arial" font-size="16" fill="rgba(161,161,170,0.9)">
    Replace with your real photos/cover art in public/media/...
  </text>
</svg>


